<svg version="1.1" id="Layer_1" xmlns="http://www.w3.org/2000/svg" xmlns:xlink="http://www.w3.org/1999/xlink" x="0px" y="0px"
	 width="100%" viewBox="0 0 1200 1000" enable-background="new 0 0 1200 1000" xml:space="preserve">
<path fill="#FFFFFF" opacity="1.000000" stroke="none" 
	d="
M741.000000,1001.000000 
	C494.027954,1001.000000 247.555923,1001.000000 1.041940,1001.000000 
	C1.041940,667.732422 1.041940,334.464874 1.041940,1.098654 
	C400.888855,1.098654 800.777710,1.098654 1200.833252,1.098654 
	C1200.833252,334.333252 1200.833252,667.666626 1200.833252,1001.000000 
	C1047.797974,1001.000000 894.648987,1001.000000 741.000000,1001.000000 
M954.904968,743.963257 
	C963.570740,743.946777 972.236450,743.934814 980.902222,743.912659 
	C990.740051,743.887390 994.867310,739.796997 994.877930,729.973511 
	C994.898804,710.641357 994.882202,691.309204 994.885742,671.977051 
	C994.887573,662.117126 996.577148,660.278992 1006.568298,659.232056 
	C1028.946899,656.887024 1044.477173,640.270508 1044.631470,617.865845 
	C1044.843628,587.035889 1044.768677,556.203064 1044.651855,525.372070 
	C1044.594360,510.218994 1035.176270,497.972748 1021.180298,494.315094 
	C1019.267639,493.815247 1017.301514,493.520294 1015.063354,493.070862 
	C1015.063354,491.018402 1015.063354,489.205444 1015.063354,487.392456 
	C1015.063232,455.227783 1015.068176,423.063080 1015.060059,390.898407 
	C1015.057434,380.587402 1011.508545,376.995422 1001.363953,376.994751 
	C962.366394,376.992218 923.368774,376.991821 884.371216,376.995117 
	C874.464111,376.995941 870.875916,380.577423 870.872070,390.536072 
	C870.859558,422.867401 870.866638,455.198730 870.866150,487.530060 
	C870.866150,489.317078 870.866150,491.104065 870.866150,492.852905 
	C869.749573,493.189514 869.130371,493.421356 868.491150,493.562286 
	C850.240479,497.586670 841.206543,508.793121 841.202637,527.457214 
	C841.196350,557.122070 841.185974,586.786865 841.205994,616.451721 
	C841.222229,640.456726 856.930847,657.476990 880.846680,659.458984 
	C888.575623,660.099548 891.037659,662.735413 891.044189,670.506653 
	C891.061157,690.672058 891.030823,710.837524 891.061768,731.002869 
	C891.074890,739.528931 895.428223,743.836914 903.988708,743.908569 
	C913.317749,743.986633 922.647034,744.039001 931.979004,745.027100 
	C931.980225,759.359802 932.082947,773.693359 931.953308,788.024902 
	C931.831360,801.507568 932.440125,815.090515 931.037354,828.451965 
	C924.721008,888.617004 864.622253,928.423035 806.758972,911.241211 
	C764.012451,898.548035 736.223877,861.047852 736.178711,815.587341 
	C736.095337,731.594116 736.195251,647.600708 736.084778,563.607544 
	C736.074341,555.638611 735.736755,547.573120 734.501099,539.717590 
	C722.685608,464.603271 650.696655,415.297668 577.145996,429.763855 
	C516.050598,441.780304 470.027252,496.605988 469.974579,558.811768 
	C469.928558,613.140686 469.978333,667.469727 469.938171,721.798706 
	C469.934845,726.287292 469.716766,730.788025 469.345062,735.262146 
	C464.552795,792.948792 413.443787,833.988464 356.192902,826.164490 
	C307.173126,819.465332 270.297974,777.562805 270.040619,728.169128 
	C269.943359,709.504456 270.021454,690.838867 270.016815,672.173706 
	C270.013885,660.341370 270.117249,648.507507 269.953369,636.677368 
	C269.870117,630.667786 265.306244,626.222839 259.568695,625.996643 
	C253.562927,625.759888 248.688873,630.052185 248.097305,636.164734 
	C247.969376,637.486572 248.045013,638.829163 248.044922,640.162170 
	C248.042862,668.493225 247.797928,696.827637 248.179901,725.153564 
	C248.309219,734.742737 249.207840,744.479553 251.147827,753.860901 
	C264.516876,818.510925 331.518311,861.204163 395.785980,846.352112 
	C453.375488,833.043457 491.861084,784.661621 491.867126,725.550476 
	C491.872711,670.888184 491.826385,616.225830 491.926056,561.563721 
	C491.937531,555.263000 492.206451,548.873779 493.255096,542.677795 
	C502.934082,485.487213 552.162109,446.434784 610.337280,449.584991 
	C667.514587,452.681183 714.027100,501.595734 714.042725,558.710510 
	C714.065857,643.537048 714.002930,728.363647 714.128357,813.190002 
	C714.139832,820.978882 714.768738,828.837708 715.920288,836.543030 
	C725.544434,900.940308 788.590759,946.573792 852.777405,935.775757 
	C911.829956,925.841309 953.789551,876.439453 953.947449,816.592590 
	C954.011230,792.427979 953.965942,768.263184 954.904968,743.963257 
M310.952850,430.453522 
	C310.952850,415.122772 311.312988,399.781219 310.851837,384.464355 
	C310.388336,369.071136 317.015015,359.242310 331.088654,352.989441 
	C350.218658,344.490051 360.370239,328.839325 360.605011,308.096527 
	C361.119843,262.609863 360.808655,217.113327 360.744293,171.620941 
	C360.724274,157.459702 351.966614,145.543015 338.782684,141.535889 
	C335.647003,140.582809 332.335602,140.207748 328.607605,139.468124 
	C328.607605,137.785126 328.607605,135.998459 328.607605,134.211792 
	C328.607605,106.716331 328.620148,79.220863 328.601196,51.725414 
	C328.593811,41.001835 324.804810,37.185680 314.240875,37.183922 
	C277.413635,37.177795 240.586380,37.176796 203.759140,37.184677 
	C193.320496,37.186909 189.699341,40.826847 189.693314,51.367542 
	C189.677521,79.029633 189.687958,106.691734 189.687943,134.353836 
	C189.687943,136.118790 189.687943,137.883743 189.687943,139.585358 
	C165.573654,141.768600 156.917099,158.432861 157.171249,176.607178 
	C157.774673,219.758286 157.211060,262.924316 157.433273,306.082733 
	C157.549225,328.601105 168.087418,344.794586 188.799728,353.932343 
	C201.121460,359.368439 207.252197,368.479614 207.158737,381.989502 
	C207.033096,400.152283 207.084808,418.316772 207.150696,436.480225 
	C207.180984,444.829559 211.477325,449.011230 219.793106,449.030579 
	C229.069550,449.052155 238.346100,449.035553 248.038757,449.035553 
	C248.038757,451.398895 248.038773,453.194977 248.038773,454.991058 
	C248.038773,472.821442 248.038284,490.651855 248.038940,508.482239 
	C248.039383,520.480225 247.963074,532.478943 248.069885,544.476013 
	C248.142746,552.657654 254.459442,557.839478 261.859924,556.023315 
	C267.011536,554.759033 270.002991,550.373352 270.007690,543.848328 
	C270.029053,514.186584 270.017883,484.524780 270.018433,454.863007 
	C270.018463,453.077667 270.018433,451.292358 270.018433,449.034546 
	C280.139618,449.034546 289.759583,449.081635 299.378815,449.018616 
	C306.186707,448.974030 310.617371,444.681183 310.931335,437.930695 
	C311.031891,435.768982 310.950836,433.598816 310.952850,430.453522 
z"/>
<path fill="#0937CA" opacity="1.000000" stroke="none" 
	d="
M953.970276,744.098450 
	C953.965942,768.263184 954.011230,792.427979 953.947449,816.592590 
	C953.789551,876.439453 911.829956,925.841309 852.777405,935.775757 
	C788.590759,946.573792 725.544434,900.940308 715.920288,836.543030 
	C714.768738,828.837708 714.139832,820.978882 714.128357,813.190002 
	C714.002930,728.363647 714.065857,643.537048 714.042725,558.710510 
	C714.027100,501.595734 667.514587,452.681183 610.337280,449.584991 
	C552.162109,446.434784 502.934082,485.487213 493.255096,542.677795 
	C492.206451,548.873779 491.937531,555.263000 491.926056,561.563721 
	C491.826385,616.225830 491.872711,670.888184 491.867126,725.550476 
	C491.861084,784.661621 453.375488,833.043457 395.785980,846.352112 
	C331.518311,861.204163 264.516876,818.510925 251.147827,753.860901 
	C249.207840,744.479553 248.309219,734.742737 248.179901,725.153564 
	C247.797928,696.827637 248.042862,668.493225 248.044922,640.162170 
	C248.045013,638.829163 247.969376,637.486572 248.097305,636.164734 
	C248.688873,630.052185 253.562927,625.759888 259.568695,625.996643 
	C265.306244,626.222839 269.870117,630.667786 269.953369,636.677368 
	C270.117249,648.507507 270.013885,660.341370 270.016815,672.173706 
	C270.021454,690.838867 269.943359,709.504456 270.040619,728.169128 
	C270.297974,777.562805 307.173126,819.465332 356.192902,826.164490 
	C413.443787,833.988464 464.552795,792.948792 469.345062,735.262146 
	C469.716766,730.788025 469.934845,726.287292 469.938171,721.798706 
	C469.978333,667.469727 469.928558,613.140686 469.974579,558.811768 
	C470.027252,496.605988 516.050598,441.780304 577.145996,429.763855 
	C650.696655,415.297668 722.685608,464.603271 734.501099,539.717590 
	C735.736755,547.573120 736.074341,555.638611 736.084778,563.607544 
	C736.195251,647.600708 736.095337,731.594116 736.178711,815.587341 
	C736.223877,861.047852 764.012451,898.548035 806.758972,911.241211 
	C864.622253,928.423035 924.721008,888.617004 931.037354,828.451965 
	C932.440125,815.090515 931.831360,801.507568 931.953308,788.024902 
	C932.082947,773.693359 931.980225,759.359802 932.443604,744.498718 
	C939.928894,744.013062 946.949585,744.055725 953.970276,744.098450 
z"/>
<path fill="#0938CA" opacity="1.000000" stroke="none" 
	d="
M310.952881,430.942993 
	C310.950836,433.598816 311.031891,435.768982 310.931335,437.930695 
	C310.617371,444.681183 306.186707,448.974030 299.378815,449.018616 
	C289.759583,449.081635 280.139618,449.034546 270.018433,449.034546 
	C270.018433,451.292358 270.018463,453.077667 270.018433,454.863007 
	C270.017883,484.524780 270.029053,514.186584 270.007690,543.848328 
	C270.002991,550.373352 267.011536,554.759033 261.859924,556.023315 
	C254.459442,557.839478 248.142746,552.657654 248.069885,544.476013 
	C247.963074,532.478943 248.039383,520.480225 248.038940,508.482239 
	C248.038284,490.651855 248.038773,472.821442 248.038773,454.991058 
	C248.038773,453.194977 248.038757,451.398895 248.038757,449.035553 
	C238.346100,449.035553 229.069550,449.052155 219.793106,449.030579 
	C211.477325,449.011230 207.180984,444.829559 207.150696,436.480225 
	C207.084808,418.316772 207.033096,400.152283 207.158737,381.989502 
	C207.252197,368.479614 201.121460,359.368439 188.799728,353.932343 
	C168.087418,344.794586 157.549225,328.601105 157.433273,306.082733 
	C157.211060,262.924316 157.774673,219.758286 157.171249,176.607178 
	C156.917099,158.432861 165.573654,141.768600 189.687943,139.585358 
	C189.687943,137.883743 189.687943,136.118790 189.687943,134.353836 
	C189.687958,106.691734 189.677521,79.029633 189.693314,51.367542 
	C189.699341,40.826847 193.320496,37.186909 203.759140,37.184677 
	C240.586380,37.176796 277.413635,37.177795 314.240875,37.183922 
	C324.804810,37.185680 328.593811,41.001835 328.601196,51.725414 
	C328.620148,79.220863 328.607605,106.716331 328.607605,134.211792 
	C328.607605,135.998459 328.607605,137.785126 328.607605,139.468124 
	C332.335602,140.207748 335.647003,140.582809 338.782684,141.535889 
	C351.966614,145.543015 360.724274,157.459702 360.744293,171.620941 
	C360.808655,217.113327 361.119843,262.609863 360.605011,308.096527 
	C360.370239,328.839325 350.218658,344.490051 331.088654,352.989441 
	C317.015015,359.242310 310.388336,369.071136 310.851837,384.464355 
	C311.312988,399.781219 310.952850,415.122772 310.952881,430.942993 
M254.162598,59.208836 
	C240.121399,59.208836 226.080185,59.208836 212.000549,59.208836 
	C212.000549,86.517029 212.000549,113.044960 212.000549,139.836319 
	C226.532455,139.836319 240.784042,139.836319 255.955688,140.000793 
	C272.688660,140.000793 289.421631,140.000793 306.230957,140.000793 
	C306.230957,112.830467 306.230957,86.163811 306.230957,59.447609 
	C288.935883,59.447609 272.009949,59.447609 254.162598,59.208836 
M224.116699,162.040741 
	C213.283524,162.029907 202.450333,162.007126 191.617157,162.011932 
	C182.396194,162.016037 179.259140,165.090485 179.255630,174.249039 
	C179.238937,217.748871 179.259079,261.248688 179.242905,304.748535 
	C179.237656,318.887817 185.378006,328.653076 198.679733,334.307922 
	C214.598404,341.075195 224.577789,353.242615 228.112045,370.273102 
	C229.015564,374.626831 229.089859,379.200836 229.127609,383.677155 
	C229.248123,397.964294 229.172318,412.253082 229.172318,426.897400 
	C244.135941,426.897400 258.580017,426.897400 273.943146,427.063629 
	C278.859314,427.063629 283.775482,427.063629 288.936218,427.063629 
	C288.936218,411.187988 288.763092,396.047302 288.977112,380.912048 
	C289.291443,358.684082 299.851013,342.964447 320.125122,334.046570 
	C332.695984,328.517090 338.783783,319.066040 338.897278,305.572266 
	C338.995300,293.913849 338.918152,282.253937 338.918213,270.594696 
	C338.918304,238.448486 338.927338,206.302277 338.912354,174.156067 
	C338.908234,165.307449 335.655182,162.025574 326.964417,162.009872 
	C319.469208,161.996338 311.973938,161.991501 304.478729,162.009415 
	C278.000916,162.072723 251.523087,162.147461 224.116699,162.040741 
z"/>
<path fill="#1DE5BF" opacity="1.000000" stroke="none" 
	d="
M954.437622,744.030884 
	C946.949585,744.055725 939.928894,744.013062 932.442200,744.036438 
	C922.647034,744.039001 913.317749,743.986633 903.988708,743.908569 
	C895.428223,743.836914 891.074890,739.528931 891.061768,731.002869 
	C891.030823,710.837524 891.061157,690.672058 891.044189,670.506653 
	C891.037659,662.735413 888.575623,660.099548 880.846680,659.458984 
	C856.930847,657.476990 841.222229,640.456726 841.205994,616.451721 
	C841.185974,586.786865 841.196350,557.122070 841.202637,527.457214 
	C841.206543,508.793121 850.240479,497.586670 868.491150,493.562286 
	C869.130371,493.421356 869.749573,493.189514 870.866150,492.852905 
	C870.866150,491.104065 870.866150,489.317078 870.866150,487.530060 
	C870.866638,455.198730 870.859558,422.867401 870.872070,390.536072 
	C870.875916,380.577423 874.464111,376.995941 884.371216,376.995117 
	C923.368774,376.991821 962.366394,376.992218 1001.363953,376.994751 
	C1011.508545,376.995422 1015.057434,380.587402 1015.060059,390.898407 
	C1015.068176,423.063080 1015.063232,455.227783 1015.063354,487.392456 
	C1015.063354,489.205444 1015.063354,491.018402 1015.063354,493.070862 
	C1017.301514,493.520294 1019.267639,493.815247 1021.180298,494.315094 
	C1035.176270,497.972748 1044.594360,510.218994 1044.651855,525.372070 
	C1044.768677,556.203064 1044.843628,587.035889 1044.631470,617.865845 
	C1044.477173,640.270508 1028.946899,656.887024 1006.568298,659.232056 
	C996.577148,660.278992 994.887573,662.117126 994.885742,671.977051 
	C994.882202,691.309204 994.898804,710.641357 994.877930,729.973511 
	C994.867310,739.796997 990.740051,743.887390 980.902222,743.912659 
	C972.236450,743.934814 963.570740,743.946777 954.437622,744.030884 
M934.500122,721.920959 
	C947.107605,721.920959 959.715149,721.920959 972.844604,721.920959 
	C972.844604,719.519592 972.844543,717.724915 972.844604,715.930298 
	C972.845032,700.932251 972.827026,685.934265 972.850586,670.936218 
	C972.881653,651.152039 983.722839,639.225525 1003.440735,637.235107 
	C1016.341064,635.932922 1022.742676,628.952759 1022.762146,615.924988 
	C1022.806274,586.428955 1022.790405,556.932739 1022.767944,527.436646 
	C1022.761047,518.353760 1019.470215,515.126953 1010.355591,515.126160 
	C965.528137,515.122375 920.700745,515.123230 875.873291,515.125488 
	C866.213135,515.125977 863.079529,518.281433 863.077026,528.047913 
	C863.069580,557.210754 863.065125,586.373596 863.078613,615.536438 
	C863.084717,628.853271 869.277222,635.743774 882.533997,637.261169 
	C902.634216,639.561707 913.037537,651.238953 913.054138,671.543945 
	C913.066223,686.375305 913.056641,701.206726 913.056702,716.038086 
	C913.056702,717.818848 913.056763,719.599548 913.056763,721.920898 
	C920.262207,721.920898 926.881226,721.920898 934.500122,721.920959 
M940.500000,493.239807 
	C957.915649,493.239807 975.331238,493.239807 992.715576,493.239807 
	C992.715576,461.392334 992.715576,430.332336 992.715576,399.295959 
	C959.278442,399.295959 926.217896,399.295959 893.194336,399.295959 
	C893.194336,430.741791 893.194336,461.804413 893.194336,493.240021 
	C908.884155,493.240021 924.192078,493.240021 940.500000,493.239807 
z"/>
<path fill="#FEFEFF" opacity="1.000000" stroke="none" 
	d="
M225.045258,162.217865 
	C251.523087,162.147461 278.000916,162.072723 304.478729,162.009415 
	C311.973938,161.991501 319.469208,161.996338 326.964417,162.009872 
	C335.655182,162.025574 338.908234,165.307449 338.912354,174.156067 
	C338.927338,206.302277 338.918304,238.448486 338.918213,270.594696 
	C338.918152,282.253937 338.995300,293.913849 338.897278,305.572266 
	C338.783783,319.066040 332.695984,328.517090 320.125122,334.046570 
	C299.851013,342.964447 289.291443,358.684082 288.977112,380.912048 
	C288.763092,396.047302 288.936218,411.187988 288.936218,427.063629 
	C283.775482,427.063629 278.859314,427.063629 273.475952,426.518738 
	C273.005066,410.321594 273.012482,394.669373 272.994446,379.017120 
	C272.977966,364.688110 262.788269,349.445618 249.342026,344.301086 
	C231.550537,337.494080 223.279510,322.922394 223.067764,305.311005 
	C222.837570,286.164856 223.021729,267.013702 223.442047,247.926300 
	C225.300446,248.334045 226.741104,248.977280 228.183731,248.981735 
	C248.825333,249.045456 269.467957,249.119080 290.108521,248.958389 
	C295.756195,248.914429 299.943390,244.162811 300.094910,238.533539 
	C300.278870,231.698959 295.539124,227.131287 287.884949,227.100128 
	C269.573822,227.025574 251.261978,227.031860 232.950943,227.117645 
	C229.992416,227.131500 227.036575,227.721313 223.772034,227.754349 
	C223.321320,221.247711 223.178055,215.031601 223.448807,208.890335 
	C225.973618,209.331284 228.083084,210.006226 230.195419,210.015335 
	C249.354050,210.097977 268.513245,210.089615 287.672150,210.052353 
	C295.464539,210.037201 300.181641,205.746124 300.100494,198.923035 
	C300.020844,192.226151 295.200836,188.075424 287.342896,188.063416 
	C268.850342,188.035172 250.357315,187.991653 231.865570,188.116791 
	C228.936325,188.136612 226.012787,189.001938 223.068054,188.978271 
	C223.714767,179.726074 224.380020,170.971970 225.045258,162.217865 
z"/>
<path fill="#D3E0F4" opacity="1.000000" stroke="none" 
	d="
M224.580994,162.129303 
	C224.380020,170.971970 223.714767,179.726074 222.867966,189.226105 
	C216.043747,196.349472 216.138748,201.488358 223.034790,208.815506 
	C223.178055,215.031601 223.321320,221.247711 223.556244,228.019577 
	C216.160080,234.074463 215.958923,240.306015 223.025238,247.864746 
	C223.021729,267.013702 222.837570,286.164856 223.067764,305.311005 
	C223.279510,322.922394 231.550537,337.494080 249.342026,344.301086 
	C262.788269,349.445618 272.977966,364.688110 272.994446,379.017120 
	C273.012482,394.669373 273.005066,410.321594 273.016418,426.435608 
	C258.580017,426.897400 244.135941,426.897400 229.172318,426.897400 
	C229.172318,412.253082 229.248123,397.964294 229.127609,383.677155 
	C229.089859,379.200836 229.015564,374.626831 228.112045,370.273102 
	C224.577789,353.242615 214.598404,341.075195 198.679733,334.307922 
	C185.378006,328.653076 179.237656,318.887817 179.242905,304.748535 
	C179.259079,261.248688 179.238937,217.748871 179.255630,174.249039 
	C179.259140,165.090485 182.396194,162.016037 191.617157,162.011932 
	C202.450333,162.007126 213.283524,162.029907 224.580994,162.129303 
z"/>
<path fill="#FBFCFE" opacity="1.000000" stroke="none" 
	d="
M255.084045,59.447609 
	C272.009949,59.447609 288.935883,59.447609 306.230957,59.447609 
	C306.230957,86.163811 306.230957,112.830467 306.230957,140.000793 
	C289.421631,140.000793 272.688660,140.000793 255.495407,139.460754 
	C255.031906,127.291977 255.075699,115.662811 254.973389,104.034927 
	C254.958527,102.345741 254.244537,100.662712 253.866180,98.562843 
	C253.888062,96.770409 253.897797,95.391953 254.234833,93.744858 
	C254.736099,82.133339 254.910080,70.790474 255.084045,59.447609 
M278.622406,107.308342 
	C281.785095,107.288925 284.956329,107.410378 288.108643,107.219574 
	C293.940796,106.866577 298.109528,102.778236 298.619720,97.146591 
	C299.102356,91.818748 295.257599,86.489098 289.541992,85.883224 
	C284.137695,85.310349 278.435028,84.961777 273.224457,86.127457 
	C270.123688,86.821136 266.536621,90.116386 265.233490,93.133919 
	C261.929718,100.784149 267.747589,107.012344 278.622406,107.308342 
z"/>
<path fill="#D2DFF4" opacity="1.000000" stroke="none" 
	d="
M253.854050,98.976830 
	C254.244537,100.662712 254.958527,102.345741 254.973389,104.034927 
	C255.075699,115.662811 255.031906,127.291977 255.035370,139.378525 
	C240.784042,139.836319 226.532455,139.836319 212.000549,139.836319 
	C212.000549,113.044960 212.000549,86.517029 212.000549,59.208836 
	C226.080185,59.208836 240.121399,59.208836 254.623322,59.328224 
	C254.910080,70.790474 254.736099,82.133339 253.964325,93.540131 
	C250.784882,91.044563 248.536102,86.890961 245.550156,86.267410 
	C239.862869,85.079742 233.687256,85.351852 227.840759,86.060425 
	C222.353882,86.725418 219.284653,91.775215 219.722031,97.392395 
	C220.135910,102.708092 223.862961,106.671448 229.257401,107.122925 
	C232.718628,107.412613 236.237152,107.032417 239.695206,107.341713 
	C246.508438,107.951088 251.171127,105.212929 253.854050,98.976830 
z"/>
<path fill="#FDFFFE" opacity="1.000000" stroke="none" 
	d="
M934.000183,721.920898 
	C926.881226,721.920898 920.262207,721.920898 913.056763,721.920898 
	C913.056763,719.599548 913.056702,717.818848 913.056702,716.038086 
	C913.056641,701.206726 913.066223,686.375305 913.054138,671.543945 
	C913.037537,651.238953 902.634216,639.561707 882.533997,637.261169 
	C869.277222,635.743774 863.084717,628.853271 863.078613,615.536438 
	C863.065125,586.373596 863.069580,557.210754 863.077026,528.047913 
	C863.079529,518.281433 866.213135,515.125977 875.873291,515.125488 
	C920.700745,515.123230 965.528137,515.122375 1010.355591,515.126160 
	C1019.470215,515.126953 1022.761047,518.353760 1022.767944,527.436646 
	C1022.790405,556.932739 1022.806274,586.428955 1022.762146,615.924988 
	C1022.742676,628.952759 1016.341064,635.932922 1003.440735,637.235107 
	C983.722839,639.225525 972.881653,651.152039 972.850586,670.936218 
	C972.827026,685.934265 972.845032,700.932251 972.844604,715.930298 
	C972.844543,717.724915 972.844604,719.519592 972.844604,721.920959 
	C959.715149,721.920959 947.107605,721.920959 934.000183,721.920898 
M976.226074,576.875183 
	C975.266235,576.620422 974.306885,576.145569 973.346436,576.143188 
	C953.195007,576.093506 933.041321,575.928772 912.893127,576.182983 
	C905.960632,576.270447 901.658997,581.378296 901.921997,587.851624 
	C902.177612,594.145142 906.508850,598.123535 913.607666,598.153870 
	C933.093018,598.237061 952.579102,598.218506 972.064636,598.163269 
	C978.181885,598.145935 982.508118,595.017334 983.779663,590.015625 
	C985.105652,584.799744 982.708557,580.203064 976.226074,576.875183 
M926.501831,559.153564 
	C941.966980,559.149353 957.432434,559.203003 972.897034,559.110413 
	C978.555481,559.076538 983.074341,555.253845 983.920898,550.203308 
	C984.753357,545.237000 982.219910,540.048279 977.670349,538.356140 
	C975.397278,537.510742 972.808472,537.202637 970.359802,537.190308 
	C952.068237,537.097778 933.775879,537.128174 915.483887,537.160461 
	C913.836121,537.163391 912.150391,537.280212 910.548340,537.639160 
	C904.723572,538.944397 901.497314,543.364868 901.931946,549.240051 
	C902.338257,554.732666 906.698914,558.889893 912.533752,559.099121 
	C916.851990,559.254028 921.179688,559.145081 926.501831,559.153564 
z"/>
<path fill="#FEFFFF" opacity="1.000000" stroke="none" 
	d="
M940.000000,493.239929 
	C924.192078,493.240021 908.884155,493.240021 893.194336,493.240021 
	C893.194336,461.804413 893.194336,430.741791 893.194336,399.295959 
	C926.217896,399.295959 959.278442,399.295959 992.715576,399.295959 
	C992.715576,430.332336 992.715576,461.392334 992.715576,493.239807 
	C975.331238,493.239807 957.915649,493.239807 940.000000,493.239929 
M938.514038,436.681122 
	C945.178528,436.667389 951.851807,436.861572 958.505127,436.581329 
	C965.103149,436.303375 969.264709,431.517517 969.035889,425.087036 
	C968.818726,418.984497 964.464233,414.927429 957.861267,414.883911 
	C947.864624,414.818054 937.866882,414.809692 927.870422,414.887604 
	C921.314636,414.938721 917.014404,419.079712 916.856140,425.247467 
	C916.696045,431.489410 920.698242,436.086884 927.029236,436.575714 
	C930.508606,436.844391 934.022949,436.660553 938.514038,436.681122 
z"/>
<path fill="#0A38CA" opacity="1.000000" stroke="none" 
	d="
M223.448807,208.890335 
	C216.138748,201.488358 216.043747,196.349472 222.886505,189.724182 
	C226.012787,189.001938 228.936325,188.136612 231.865570,188.116791 
	C250.357315,187.991653 268.850342,188.035172 287.342896,188.063416 
	C295.200836,188.075424 300.020844,192.226151 300.100494,198.923035 
	C300.181641,205.746124 295.464539,210.037201 287.672150,210.052353 
	C268.513245,210.089615 249.354050,210.097977 230.195419,210.015335 
	C228.083084,210.006226 225.973618,209.331284 223.448807,208.890335 
z"/>
<path fill="#0937CA" opacity="1.000000" stroke="none" 
	d="
M223.442047,247.926300 
	C215.958923,240.306015 216.160080,234.074463 223.863693,228.310120 
	C227.036575,227.721313 229.992416,227.131500 232.950943,227.117645 
	C251.261978,227.031860 269.573822,227.025574 287.884949,227.100128 
	C295.539124,227.131287 300.278870,231.698959 300.094910,238.533539 
	C299.943390,244.162811 295.756195,248.914429 290.108521,248.958389 
	C269.467957,249.119080 248.825333,249.045456 228.183731,248.981735 
	C226.741104,248.977280 225.300446,248.334045 223.442047,247.926300 
z"/>
<path fill="#0A39CA" opacity="1.000000" stroke="none" 
	d="
M253.866180,98.562843 
	C251.171127,105.212929 246.508438,107.951088 239.695206,107.341713 
	C236.237152,107.032417 232.718628,107.412613 229.257401,107.122925 
	C223.862961,106.671448 220.135910,102.708092 219.722031,97.392395 
	C219.284653,91.775215 222.353882,86.725418 227.840759,86.060425 
	C233.687256,85.351852 239.862869,85.079742 245.550156,86.267410 
	C248.536102,86.890961 250.784882,91.044563 253.637039,93.808784 
	C253.897797,95.391953 253.888062,96.770409 253.866180,98.562843 
z"/>
<path fill="#0C3ACA" opacity="1.000000" stroke="none" 
	d="
M278.149353,107.308151 
	C267.747589,107.012344 261.929718,100.784149 265.233490,93.133919 
	C266.536621,90.116386 270.123688,86.821136 273.224457,86.127457 
	C278.435028,84.961777 284.137695,85.310349 289.541992,85.883224 
	C295.257599,86.489098 299.102356,91.818748 298.619720,97.146591 
	C298.109528,102.778236 293.940796,106.866577 288.108643,107.219574 
	C284.956329,107.410378 281.785095,107.288925 278.149353,107.308151 
z"/>
<path fill="#1DE5BF" opacity="1.000000" stroke="none" 
	d="
M976.622070,576.962646 
	C982.708557,580.203064 985.105652,584.799744 983.779663,590.015625 
	C982.508118,595.017334 978.181885,598.145935 972.064636,598.163269 
	C952.579102,598.218506 933.093018,598.237061 913.607666,598.153870 
	C906.508850,598.123535 902.177612,594.145142 901.921997,587.851624 
	C901.658997,581.378296 905.960632,576.270447 912.893127,576.182983 
	C933.041321,575.928772 953.195007,576.093506 973.346436,576.143188 
	C974.306885,576.145569 975.266235,576.620422 976.622070,576.962646 
z"/>
<path fill="#1EE5BF" opacity="1.000000" stroke="none" 
	d="
M926.002502,559.153625 
	C921.179688,559.145081 916.851990,559.254028 912.533752,559.099121 
	C906.698914,558.889893 902.338257,554.732666 901.931946,549.240051 
	C901.497314,543.364868 904.723572,538.944397 910.548340,537.639160 
	C912.150391,537.280212 913.836121,537.163391 915.483887,537.160461 
	C933.775879,537.128174 952.068237,537.097778 970.359802,537.190308 
	C972.808472,537.202637 975.397278,537.510742 977.670349,538.356140 
	C982.219910,540.048279 984.753357,545.237000 983.920898,550.203308 
	C983.074341,555.253845 978.555481,559.076538 972.897034,559.110413 
	C957.432434,559.203003 941.966980,559.149353 926.002502,559.153625 
z"/>
<path fill="#1FE6BF" opacity="1.000000" stroke="none" 
	d="
M938.017761,436.680908 
	C934.022949,436.660553 930.508606,436.844391 927.029236,436.575714 
	C920.698242,436.086884 916.696045,431.489410 916.856140,425.247467 
	C917.014404,419.079712 921.314636,414.938721 927.870422,414.887604 
	C937.866882,414.809692 947.864624,414.818054 957.861267,414.883911 
	C964.464233,414.927429 968.818726,418.984497 969.035889,425.087036 
	C969.264709,431.517517 965.103149,436.303375 958.505127,436.581329 
	C951.851807,436.861572 945.178528,436.667389 938.017761,436.680908 
z"/>
</svg>